<svg xmlns="http://www.w3.org/2000/svg" viewBox="0 0 108 108" role="img" aria-label="Series Organizer+ icon">
  <defs>
    <mask id="plus-badge-cutout" maskUnits="userSpaceOnUse" x="0" y="0" width="108" height="108">
      <rect width="108" height="108" fill="#FFFFFF"/>
      <circle cx="74.75" cy="72.5" r="8.5" fill="#000000"/>
    </mask>
  </defs>

  <g mask="url(#plus-badge-cutout)">
    <g fill="#1E1E1E">
      <g transform="translate(1 3)">
        <rect x="39.5" y="20.5" width="5.5" height="17" rx="2.75" transform="rotate(-45 42.25 29)"/>
        <rect x="57.5" y="20.5" width="5.5" height="17" rx="2.75" transform="rotate(45 60.25 29)"/>
        <path fill-rule="evenodd" d="M31 32h38a8 8 0 0 1 8 8v24a8 8 0 0 1-8 8H31a8 8 0 0 1-8-8V40a8 8 0 0 1 8-8Zm0 5a3 3 0 0 0-3 3v24a3 3 0 0 0 3 3h38a3 3 0 0 0 3-3V40a3 3 0 0 0-3-3H31Z"/>
      </g>

      <g transform="translate(-0.5 0.25)">
        <rect x="59" y="44.5" width="11" height="4.5" rx="2.25"/>
        <rect x="59" y="52.75" width="11" height="4.5" rx="2.25"/>
        <rect x="59" y="61" width="11" height="4.5" rx="2.25"/>
      </g>
    </g>

    <g fill="#FF8A00" transform="translate(-0.5 0.25)">
      <polygon points="33,44 33,64 49,54"/>
      <circle cx="54" cy="46.75" r="2.5"/>
      <circle cx="54" cy="55" r="2.5"/>
      <circle cx="54" cy="63.25" r="2.5"/>
    </g>
  </g>

  <g fill="#1E1E1E" transform="translate(74.75 72.5) scale(0.78) translate(-77.5 -76)">
    <rect x="74.5" y="66" width="6" height="20" rx="3"/>
    <rect x="67.5" y="73" width="20" height="6" rx="3"/>
  </g>
</svg>
